solid "Surface"
   facet normal 3.07132899231748E-30 -1 -3.71352796603441E-15
      outer loop
         vertex -0.00315693950653076 -1.15294698457764E-17 0.00310472142696381
         vertex -0.00321952414512634 -1.04839378146231E-17 0.00282317459583282
         vertex -0.00275 -7.42705593206876E-18 0.00199999999999998
      endloop
   endfacet
   facet normal 0 -1 -3.71352796603441E-15
      outer loop
         vertex -0.00275 -7.42705593206876E-18 0.00199999999999998
         vertex -0.00321952414512634 -1.04839378146231E-17 0.00282317459583282
         vertex -0.00325799703598022 -9.42245842588101E-18 0.00253733336925507
      endloop
   endfacet
   facet normal -1.7104169965261E-30 -1 -3.71352796603442E-15
      outer loop
         vertex -0.00275 -7.42705593206876E-18 0.00199999999999998
         vertex -0.00325799703598022 -9.42245842588101E-18 0.00253733336925507
         vertex -0.00329199838638306 -8.14931310303499E-18 0.00219449353218079
      endloop
   endfacet
   facet normal 0 -1 -3.71352796603441E-15
      outer loop
         vertex -0.00329199838638306 -8.14931310303499E-18 0.00219449353218079
         vertex -0.00330541390602297 -7.42705593206876E-18 0.00199999999999998
         vertex -0.00275 -7.42705593206876E-18 0.00199999999999998
      endloop
   endfacet
   facet normal 0 -1 -3.71352796603441E-15
      outer loop
         vertex -0.00275 -7.42705593206876E-18 0.00199999999999998
         vertex -0.00330541390602297 -7.42705593206876E-18 0.00199999999999998
         vertex -0.00331570601463318 -6.87295520040821E-18 0.00185078859329224
      endloop
   endfacet
   facet normal 1.21969354930892E-30 -1 -3.71352796603441E-15
      outer loop
         vertex -0.00275 -7.42705593206876E-18 0.00199999999999998
         vertex -0.00331570601463318 -6.87295520040821E-18 0.00185078859329224
         vertex -0.00332909846305847 -5.5945310560663E-18 0.00150652724504471
      endloop
   endfacet
   facet normal -2.89844319495099E-30 -1 -3.71352796603441E-15
      outer loop
         vertex -0.00332909846305847 -5.5945310560663E-18 0.00150652724504471
         vertex -0.00334614610671997 -5.02044499706764E-18 0.00135193407535553
         vertex -0.00275 -7.42705593206876E-18 0.00199999999999998
      endloop
   endfacet
   facet normal 6.16210722521538E-30 -1 -3.71352796603442E-15
      outer loop
         vertex -0.00275 -7.42705593206876E-18 0.00199999999999998
         vertex -0.00334614610671997 -5.02044499706764E-18 0.00135193407535553
         vertex -0.00338938283920288 -4.46564526258577E-18 0.00120253443717957
      endloop
   endfacet
   facet normal 0 -1 -3.71352796603441E-15
      outer loop
         vertex -0.00275 -7.42705593206876E-18 0.00199999999999998
         vertex -0.00338938283920288 -4.46564526258577E-18 0.00120253443717957
         vertex -0.00275000000000079 6.0221572098141E-18 -0.00162168085575104
      endloop
   endfacet
   facet normal 0 -1 -3.71352796603442E-15
      outer loop
         vertex -0.00275000000000079 6.0221572098141E-18 -0.00162168085575104
         vertex -0.00338938283920288 -4.46564526258577E-18 0.00120253443717957
         vertex -0.00345753502845764 -3.94648194473557E-18 0.00106273117661476
      endloop
   endfacet
   facet normal 9.01920754585062E-30 -1 -3.71352796603441E-15
      outer loop
         vertex -0.00275000000000079 6.0221572098141E-18 -0.00162168085575104
         vertex -0.00345753502845764 -3.94648194473557E-18 0.00106273117661476
         vertex -0.00354859399795532 -3.47825430729313E-18 0.000936644166707992
      endloop
   endfacet
   facet normal 5.06313491459845E-31 -1 -3.71352796603441E-15
      outer loop
         vertex -0.00354859399795532 -3.47825430729313E-18 0.000936644166707992
         vertex -0.00365987634658813 -3.07476079432917E-18 0.000827989131212234
         vertex -0.00275000000000079 6.0221572098141E-18 -0.00162168085575104
      endloop
   endfacet
   facet normal 7.63386000529068E-30 -1 -3.71352796603441E-15
      outer loop
         vertex -0.00275000000000079 6.0221572098141E-18 -0.00162168085575104
         vertex -0.00365987634658813 -3.07476079432917E-18 0.000827989131212234
         vertex -0.00378810238838196 -2.74789228383181E-18 0.000739968113601208
      endloop
   endfacet
   facet normal 7.50105488735012E-30 -1 -3.71352796603441E-15
      outer loop
         vertex -0.00275000000000079 6.0221572098141E-18 -0.00162168085575104
         vertex -0.00378810238838196 -2.74789228383181E-18 0.000739968113601208
         vertex -0.00392949390411377 -2.50728136890661E-18 0.000675175033509731
      endloop
   endfacet
   facet normal 1.79832196215843E-30 -1 -3.71352796603441E-15
      outer loop
         vertex -0.00392949390411377 -2.50728136890661E-18 0.000675175033509731
         vertex -0.00407988357543945 -2.36001877177305E-18 0.000635519321076572
         vertex -0.00275000000000079 6.0221572098141E-18 -0.00162168085575104
      endloop
   endfacet
   facet normal -8.18800896138831E-30 -1 -3.71352796603442E-15
      outer loop
         vertex -0.00275000000000079 6.0221572098141E-18 -0.00162168085575104
         vertex -0.00407988357543945 -2.36001877177305E-18 0.000635519321076572
         vertex -0.00423483991622925 -2.31044426060497E-18 0.000622169613838196
      endloop
   endfacet
   facet normal 2.53607563033841E-32 -1 -3.71352796603441E-15
      outer loop
         vertex -0.00275000000000079 6.0221572098141E-18 -0.00162168085575104
         vertex -0.00423483991622925 -2.31044426060497E-18 0.000622169613838196
         vertex -0.0055 6.0221572098141E-18 -0.00162168085575104
      endloop
   endfacet
   facet normal 0 -1 -3.71352796603441E-15
      outer loop
         vertex -0.0055 6.0221572098141E-18 -0.00162168085575104
         vertex -0.00423483991622925 -2.31044426060497E-18 0.000622169613838196
         vertex -0.0055 -2.31044426060497E-18 0.000622169613838196
      endloop
   endfacet
   facet normal 0 -1 -3.71352796603441E-15
      outer loop
         vertex -0.00275000000000079 6.0221572098141E-18 -0.00162168085575104
         vertex -8.67361737988404E-19 6.0221572098141E-18 -0.00162168085575104
         vertex -0.00275 -7.42705593206876E-18 0.00199999999999998
      endloop
   endfacet
   facet normal 0 -1 -3.71352796603441E-15
      outer loop
         vertex -0.00275 -7.42705593206876E-18 0.00199999999999998
         vertex -8.67361737988404E-19 6.0221572098141E-18 -0.00162168085575104
         vertex 0 -7.42705593206876E-18 0.00199999999999998
      endloop
   endfacet
   facet normal 0 -1 -3.71352796603441E-15
      outer loop
         vertex -0.00275 -7.42705593206876E-18 0.00199999999999998
         vertex 0 -7.42705593206876E-18 0.00199999999999998
         vertex -0.00275 -1.49705937434083E-17 0.00403136690509297
      endloop
   endfacet
   facet normal -1.32250904308156E-29 -1 -3.71352796603443E-15
      outer loop
         vertex -0.00275 -1.49705937434083E-17 0.00403136690509297
         vertex 0 -7.42705593206876E-18 0.00199999999999998
         vertex -0.00267704010009766 -1.5404195210996E-17 0.00414812958240509
      endloop
   endfacet
   facet normal 0 -1 -3.71352796603441E-15
      outer loop
         vertex -8.67361737988404E-19 6.0221572098141E-18 -0.00162168085575104
         vertex 0.00275000000000001 6.0221572098141E-18 -0.00162168085575104
         vertex 0 -7.42705593206876E-18 0.00199999999999998
      endloop
   endfacet
   facet normal 0 -1 -3.71352796603441E-15
      outer loop
         vertex 0 -7.42705593206876E-18 0.00199999999999998
         vertex 0.00275000000000001 6.0221572098141E-18 -0.00162168085575104
         vertex 0.00275 -7.42705593206876E-18 0.00199999999999998
      endloop
   endfacet
   facet normal 0 -1 -3.71352796603441E-15
      outer loop
         vertex 0 -7.42705593206876E-18 0.00199999999999998
         vertex 0.00275 -7.42705593206876E-18 0.00199999999999998
         vertex 0.00275 -1.49705937434084E-17 0.00403136690509298
      endloop
   endfacet
   facet normal -1.15913374354544E-30 -1 -3.71352796603441E-15
      outer loop
         vertex 0.00275 -1.49705937434084E-17 0.00403136690509298
         vertex 0.00275 -7.42705593206876E-18 0.00199999999999998
         vertex 0.00282987642288208 -1.4495887305575E-17 0.00390353524684906
      endloop
   endfacet
   facet normal 0 -1 -3.71352796603441E-15
      outer loop
         vertex 0.0055 6.0221572098141E-18 -0.00162168085575104
         vertex 0.00423483991622925 -2.31044426060497E-18 0.000622169613838196
         vertex 0.00275000000000001 6.0221572098141E-18 -0.00162168085575104
      endloop
   endfacet
   facet normal 8.18800896138812E-30 -1 -3.71352796603442E-15
      outer loop
         vertex 0.00275000000000001 6.0221572098141E-18 -0.00162168085575104
         vertex 0.00423483991622925 -2.31044426060497E-18 0.000622169613838196
         vertex 0.00407988357543945 -2.36001877177305E-18 0.000635519321076572
      endloop
   endfacet
   facet normal 0 -1 -3.71352796603441E-15
      outer loop
         vertex 0.00275000000000001 6.0221572098141E-18 -0.00162168085575104
         vertex 0.00407988357543945 -2.36001877177305E-18 0.000635519321076572
         vertex 0.00392949390411377 -2.50728136890661E-18 0.000675175033509731
      endloop
   endfacet
   facet normal 0 -1 -3.71352796603441E-15
      outer loop
         vertex 0.0055 6.0221572098141E-18 -0.00162168085575104
         vertex 0.0055 -2.31044426060497E-18 0.000622169613838196
         vertex 0.00423483991622925 -2.31044426060497E-18 0.000622169613838196
      endloop
   endfacet
   facet normal 9.37631860918647E-31 -1 -3.71352796603441E-15
      outer loop
         vertex 0.00392949390411377 -2.50728136890661E-18 0.000675175033509731
         vertex 0.00378810238838196 -2.74789228383181E-18 0.000739968113601208
         vertex 0.00275000000000001 6.0221572098141E-18 -0.00162168085575104
      endloop
   endfacet
   facet normal -7.63386000528934E-30 -1 -3.71352796603441E-15
      outer loop
         vertex 0.00275000000000001 6.0221572098141E-18 -0.00162168085575104
         vertex 0.00378810238838196 -2.74789228383181E-18 0.000739968113601208
         vertex 0.00365987634658814 -3.07476079432917E-18 0.000827989131212234
      endloop
   endfacet
   facet normal 1.62020317267113E-29 -1 -3.71352796603442E-15
      outer loop
         vertex 0.00275000000000001 6.0221572098141E-18 -0.00162168085575104
         vertex 0.00365987634658814 -3.07476079432917E-18 0.000827989131212234
         vertex 0.00354859399795532 -3.47825430729313E-18 0.000936644166707992
      endloop
   endfacet
   facet normal 3.38220282969298E-30 -1 -3.71352796603441E-15
      outer loop
         vertex 0.00354859399795532 -3.47825430729313E-18 0.000936644166707992
         vertex 0.00345753502845764 -3.94648194473557E-18 0.00106273117661476
         vertex 0.00275000000000001 6.0221572098141E-18 -0.00162168085575104
      endloop
   endfacet
   facet normal 0 -1 -3.71352796603441E-15
      outer loop
         vertex 0.00275000000000001 6.0221572098141E-18 -0.00162168085575104
         vertex 0.00345753502845764 -3.94648194473557E-18 0.00106273117661476
         vertex 0.00338938283920288 -4.46564526258577E-18 0.00120253443717957
      endloop
   endfacet
   facet normal 0 -1 -3.71352796603441E-15
      outer loop
         vertex 0.00275000000000001 6.0221572098141E-18 -0.00162168085575104
         vertex 0.00338938283920288 -4.46564526258577E-18 0.00120253443717957
         vertex 0.00275 -7.42705593206876E-18 0.00199999999999998
      endloop
   endfacet
   facet normal -6.16210722521535E-30 -1 -3.71352796603442E-15
      outer loop
         vertex 0.00275 -7.42705593206876E-18 0.00199999999999998
         vertex 0.00338938283920288 -4.46564526258577E-18 0.00120253443717957
         vertex 0.00334614610671997 -5.02044499706764E-18 0.00135193407535553
      endloop
   endfacet
   facet normal 2.31875455596078E-30 -1 -3.71352796603441E-15
      outer loop
         vertex 0.00275 -7.42705593206876E-18 0.00199999999999998
         vertex 0.00334614610671997 -5.02044499706764E-18 0.00135193407535553
         vertex 0.00332909846305847 -5.5945310560663E-18 0.00150652724504471
      endloop
   endfacet
   facet normal -1.4636322591707E-30 -1 -3.71352796603441E-15
      outer loop
         vertex 0.00332909846305847 -5.5945310560663E-18 0.00150652724504471
         vertex 0.00331570601463318 -6.87295520040821E-18 0.00185078859329224
         vertex 0.00275 -7.42705593206876E-18 0.00199999999999998
      endloop
   endfacet
   facet normal -2.77404641619841E-30 -1 -3.71352796603442E-15
      outer loop
         vertex 0.00275 -7.42705593206876E-18 0.00199999999999998
         vertex 0.00331570601463318 -6.87295520040821E-18 0.00185078859329224
         vertex 0.00330541390602297 -7.42705593206876E-18 0.00199999999999998
      endloop
   endfacet
   facet normal -2.77404641619841E-30 -1 -3.7135279660344E-15
      outer loop
         vertex 0.00275 -7.42705593206876E-18 0.00199999999999998
         vertex 0.00330541390602297 -7.42705593206876E-18 0.00199999999999998
         vertex 0.00329199838638306 -8.14931310303499E-18 0.00219449353218079
      endloop
   endfacet
   facet normal 1.7104169965261E-30 -1 -3.71352796603441E-15
      outer loop
         vertex 0.00329199838638306 -8.14931310303499E-18 0.00219449353218079
         vertex 0.00325799703598023 -9.42245842588101E-18 0.00253733336925507
         vertex 0.00275 -7.42705593206876E-18 0.00199999999999998
      endloop
   endfacet
   facet normal 0 -1 -3.71352796603441E-15
      outer loop
         vertex 0.00275 -7.42705593206876E-18 0.00199999999999998
         vertex 0.00325799703598023 -9.42245842588101E-18 0.00253733336925507
         vertex 0.00321952414512634 -1.04839378146231E-17 0.00282317459583282
      endloop
   endfacet
   facet normal -2.04755266154498E-30 -1 -3.71352796603441E-15
      outer loop
         vertex 0.00275 -7.42705593206876E-18 0.00199999999999998
         vertex 0.00321952414512634 -1.04839378146231E-17 0.00282317459583282
         vertex 0.00315693950653076 -1.15294698457764E-17 0.00310472142696381
      endloop
   endfacet
   facet normal -9.07387450880936E-31 -1 -3.71352796603441E-15
      outer loop
         vertex 0.00315693950653076 -1.15294698457764E-17 0.00310472142696381
         vertex 0.00307069444656372 -1.25515137884623E-17 0.0033799432516098
         vertex 0.00275 -7.42705593206876E-18 0.00199999999999998
      endloop
   endfacet
   facet normal 0 -1 -3.71352796603441E-15
      outer loop
         vertex 0.00275 -7.42705593206876E-18 0.00199999999999998
         vertex 0.00307069444656372 -1.25515137884623E-17 0.0033799432516098
         vertex 0.00296141076087952 -1.35427024451183E-17 0.00364685618877411
      endloop
   endfacet
   facet normal 1.11091030636079E-29 -1 -3.71352796603441E-15
      outer loop
         vertex 0.00275 -7.42705593206876E-18 0.00199999999999998
         vertex 0.00296141076087952 -1.35427024451183E-17 0.00364685618877411
         vertex 0.00282987642288208 -1.4495887305575E-17 0.00390353524684906
      endloop
   endfacet
   facet normal 2.00380158042667E-30 -1 -3.71352796603442E-15
      outer loop
         vertex 0.00275 -1.49705937434084E-17 0.00403136690509298
         vertex 0.00267704010009766 -1.5404195210996E-17 0.00414812958240509
         vertex 0 -7.42705593206876E-18 0.00199999999999998
      endloop
   endfacet
   facet normal -9.12431947160548E-30 -1 -3.7135279660344E-15
      outer loop
         vertex 0 -7.42705593206876E-18 0.00199999999999998
         vertex 0.00267704010009766 -1.5404195210996E-17 0.00414812958240509
         vertex 0.00250400352478027 -1.6261077049451E-17 0.00437887561321259
      endloop
   endfacet
   facet normal 0 -1 -3.71352796603441E-15
      outer loop
         vertex 0 -7.42705593206876E-18 0.00199999999999998
         vertex 0.00250400352478027 -1.6261077049451E-17 0.00437887561321259
         vertex 0.00231201457977295 -1.70603537953677E-17 0.004594109416008
      endloop
   endfacet
   facet normal 7.50975802032231E-31 -1 -3.71352796603441E-15
      outer loop
         vertex 0.00231201457977295 -1.70603537953677E-17 0.004594109416008
         vertex 0.00210245776176453 -1.77962634343563E-17 0.00479227936267853
         vertex 0 -7.42705593206876E-18 0.00199999999999998
      endloop
   endfacet
   facet normal -5.97230641026422E-30 -1 -3.71352796603441E-15
      outer loop
         vertex 0 -7.42705593206876E-18 0.00199999999999998
         vertex 0.00210245776176453 -1.77962634343563E-17 0.00479227936267853
         vertex 0.00187684369087219 -1.84634972635463E-17 0.00497195589542389
      endloop
   endfacet
   facet normal 1.1876896731264E-29 -1 -3.71352796603442E-15
      outer loop
         vertex 0 -7.42705593206876E-18 0.00199999999999998
         vertex 0.00187684369087219 -1.84634972635463E-17 0.00497195589542389
         vertex 0.00163679969310761 -1.90572468164118E-17 0.00513184416294098
      endloop
   endfacet
   facet normal 2.39948401888658E-30 -1 -3.71352796603442E-15
      outer loop
         vertex 0.00163679969310761 -1.90572468164118E-17 0.00513184416294098
         vertex 0.00138405621051788 -1.95732286532451E-17 0.0052707906961441
         vertex 0 -7.42705593206876E-18 0.00199999999999998
      endloop
   endfacet
   facet normal 5.8764064591365E-30 -1 -3.71352796603441E-15
      outer loop
         vertex 0 -7.42705593206876E-18 0.00199999999999998
         vertex 0.00138405621051788 -1.95732286532451E-17 0.0052707906961441
         vertex 0.00112043607234955 -2.00077242029896E-17 0.00538779413700104
      endloop
   endfacet
   facet normal -1.75456635229114E-29 -1 -3.71352796603441E-15
      outer loop
         vertex 0 -7.42705593206876E-18 0.00199999999999998
         vertex 0.00112043607234955 -2.00077242029896E-17 0.00538779413700104
         vertex 0.000847839772701264 -2.03575974707207E-17 0.0054820100069046
      endloop
   endfacet
   facet normal 2.911504271054E-30 -1 -3.71352796603441E-15
      outer loop
         vertex 0.000847839772701264 -2.03575974707207E-17 0.0054820100069046
         vertex 0.000568233132362367 -2.06203286818606E-17 0.00555275976657867
         vertex 0 -7.42705593206876E-18 0.00199999999999998
      endloop
   endfacet
   facet normal -5.79989584131911E-30 -1 -3.71352796603441E-15
      outer loop
         vertex 0 -7.42705593206876E-18 0.00199999999999998
         vertex 0.000568233132362367 -2.06203286818606E-17 0.00555275976657867
         vertex 0.000283632278442384 -2.07940213651703E-17 0.00559953272342682
      endloop
   endfacet
   facet normal 7.03292952186254E-29 -1 -3.71352796603442E-15
      outer loop
         vertex 0 -7.42705593206876E-18 0.00199999999999998
         vertex 0.000283632278442384 -2.07940213651703E-17 0.00559953272342682
         vertex 0.000189449042081834 -2.08370983547399E-17 0.00561113274097443
      endloop
   endfacet
   facet normal -6.4765081175294E-29 -1 -3.71352796603441E-15
      outer loop
         vertex 0.000189449042081834 -2.08370983547399E-17 0.00561113274097443
         vertex 9.48421955108651E-05 -2.08645307846495E-17 0.00561851990222931
         vertex 0 -7.42705593206876E-18 0.00199999999999998
      endloop
   endfacet
   facet normal 1.75218004883867E-29 -1 -3.71352796603441E-15
      outer loop
         vertex 0 -7.42705593206876E-18 0.00199999999999998
         vertex 9.48421955108651E-05 -2.08645307846495E-17 0.00561851990222931
         vertex -2.37169225231204E-19 -2.08762690739518E-17 0.00562168085575104
      endloop
   endfacet
   facet normal -1.75218004883871E-29 -1 -3.71352796603441E-15
      outer loop
         vertex 0 -7.42705593206876E-18 0.00199999999999998
         vertex -2.37169225231204E-19 -2.08762690739518E-17 0.00562168085575104
         vertex -9.48421955108634E-05 -2.08645307846495E-17 0.00561851990222931
      endloop
   endfacet
   facet normal 6.4765081175294E-29 -1 -3.71352796603441E-15
      outer loop
         vertex -9.48421955108634E-05 -2.08645307846495E-17 0.00561851990222931
         vertex -0.000189449042081832 -2.08370983547399E-17 0.00561113274097443
         vertex 0 -7.42705593206876E-18 0.00199999999999998
      endloop
   endfacet
   facet normal -7.03292952186254E-29 -1 -3.71352796603442E-15
      outer loop
         vertex 0 -7.42705593206876E-18 0.00199999999999998
         vertex -0.000189449042081832 -2.08370983547399E-17 0.00561113274097443
         vertex -0.000283632278442382 -2.07940213651703E-17 0.00559953272342682
      endloop
   endfacet
   facet normal 5.79989584131911E-30 -1 -3.71352796603441E-15
      outer loop
         vertex 0 -7.42705593206876E-18 0.00199999999999998
         vertex -0.000283632278442382 -2.07940213651703E-17 0.00559953272342682
         vertex -0.000568233132362365 -2.06203286818606E-17 0.00555275976657867
      endloop
   endfacet
   facet normal -2.911504271054E-30 -1 -3.71352796603441E-15
      outer loop
         vertex -0.000568233132362365 -2.06203286818606E-17 0.00555275976657867
         vertex -0.000847839772701263 -2.03575974707207E-17 0.0054820100069046
         vertex 0 -7.42705593206876E-18 0.00199999999999998
      endloop
   endfacet
   facet normal 1.75456635229114E-29 -1 -3.71352796603441E-15
      outer loop
         vertex 0 -7.42705593206876E-18 0.00199999999999998
         vertex -0.000847839772701263 -2.03575974707207E-17 0.0054820100069046
         vertex -0.00112043607234955 -2.00077242029896E-17 0.00538779413700104
      endloop
   endfacet
   facet normal -5.8764064591365E-30 -1 -3.71352796603442E-15
      outer loop
         vertex 0 -7.42705593206876E-18 0.00199999999999998
         vertex -0.00112043607234955 -2.00077242029896E-17 0.00538779413700104
         vertex -0.00138405621051788 -1.95732286532451E-17 0.0052707906961441
      endloop
   endfacet
   facet normal -2.39948401888658E-30 -1 -3.71352796603441E-15
      outer loop
         vertex -0.00138405621051788 -1.95732286532451E-17 0.0052707906961441
         vertex -0.0016367996931076 -1.90572468164118E-17 0.00513184416294098
         vertex 0 -7.42705593206876E-18 0.00199999999999998
      endloop
   endfacet
   facet normal -1.18768967312639E-29 -1 -3.71352796603442E-15
      outer loop
         vertex 0 -7.42705593206876E-18 0.00199999999999998
         vertex -0.0016367996931076 -1.90572468164118E-17 0.00513184416294098
         vertex -0.00187684369087219 -1.84634972635463E-17 0.00497195589542389
      endloop
   endfacet
   facet normal 5.97230641026423E-30 -1 -3.71352796603441E-15
      outer loop
         vertex 0 -7.42705593206876E-18 0.00199999999999998
         vertex -0.00187684369087219 -1.84634972635463E-17 0.00497195589542389
         vertex -0.00210245776176453 -1.77962634343563E-17 0.00479227936267853
      endloop
   endfacet
   facet normal -1.12646370304835E-30 -1 -3.71352796603441E-15
      outer loop
         vertex -0.00210245776176453 -1.77962634343563E-17 0.00479227936267853
         vertex -0.00231201457977295 -1.70603537953677E-17 0.004594109416008
         vertex 0 -7.42705593206876E-18 0.00199999999999998
      endloop
   endfacet
   facet normal 0 -1 -3.71352796603442E-15
      outer loop
         vertex 0 -7.42705593206876E-18 0.00199999999999998
         vertex -0.00231201457977295 -1.70603537953677E-17 0.004594109416008
         vertex -0.00250400352478027 -1.6261077049451E-17 0.00437887561321259
      endloop
   endfacet
   facet normal 9.12431947160549E-30 -1 -3.7135279660344E-15
      outer loop
         vertex 0 -7.42705593206876E-18 0.00199999999999998
         vertex -0.00250400352478027 -1.6261077049451E-17 0.00437887561321259
         vertex -0.00267704010009766 -1.5404195210996E-17 0.00414812958240509
      endloop
   endfacet
   facet normal 3.24557448192733E-29 -1 -3.71352796603441E-15
      outer loop
         vertex -0.00275 -1.49705937434083E-17 0.00403136690509297
         vertex -0.00282987642288208 -1.4495887305575E-17 0.00390353524684906
         vertex -0.00275 -7.42705593206876E-18 0.00199999999999998
      endloop
   endfacet
   facet normal -1.11091030636079E-29 -1 -3.71352796603441E-15
      outer loop
         vertex -0.00275 -7.42705593206876E-18 0.00199999999999998
         vertex -0.00282987642288208 -1.4495887305575E-17 0.00390353524684906
         vertex -0.00296141076087952 -1.35427024451183E-17 0.00364685618877411
      endloop
   endfacet
   facet normal 0 -1 -3.71352796603441E-15
      outer loop
         vertex -0.00275 -7.42705593206876E-18 0.00199999999999998
         vertex -0.00296141076087952 -1.35427024451183E-17 0.00364685618877411
         vertex -0.00307069444656372 -1.25515137884623E-17 0.0033799432516098
      endloop
   endfacet
   facet normal 0 -1 -3.71352796603441E-15
      outer loop
         vertex -0.00307069444656372 -1.25515137884623E-17 0.0033799432516098
         vertex -0.00315693950653076 -1.15294698457764E-17 0.00310472142696381
         vertex -0.00275 -7.42705593206876E-18 0.00199999999999998
      endloop
   endfacet
endsolid
