solid "Surface"
   facet normal 8.08740113365032E-33 1 6.12303176911189E-17
      outer loop
         vertex -0.00349999999999696 1.8981397900309E-19 -0.00309999990463257
         vertex -0.007 1.8981397900309E-19 -0.00309999990463257
         vertex -0.0035 -1.83690972537736E-20 0.000300000031788794
      endloop
   endfacet
   facet normal -1.13032178219784E-32 1 6.12303176911189E-17
      outer loop
         vertex -0.0035 -1.83690972537736E-20 0.000300000031788794
         vertex -0.007 1.8981397900309E-19 -0.00309999990463257
         vertex -0.007 -1.83690972537952E-20 0.000300000031789146
      endloop
   endfacet
   facet normal -1.1303217821976E-32 1 6.12303176911189E-17
      outer loop
         vertex -0.0035 -1.83690972537736E-20 0.000300000031788794
         vertex -0.007 -1.83690972537952E-20 0.000300000031789146
         vertex -0.00562322419881821 -6.73533436208528E-20 0.00109999990463257
      endloop
   endfacet
   facet normal 0 1 6.12303176911189E-17
      outer loop
         vertex -0.00562322419881821 -6.73533436208528E-20 0.00109999990463257
         vertex -0.007 -1.83690972537952E-20 0.000300000031789146
         vertex -0.007 -6.73533436208528E-20 0.00109999990463257
      endloop
   endfacet
   facet normal -4.89390954149825E-33 1 6.12303176911189E-17
      outer loop
         vertex -0.00562322419881821 -6.73533436208528E-20 0.00109999990463257
         vertex -0.00527584008872509 -7.01621428984068E-20 0.00114587259292603
         vertex -0.0035 -1.83690972537736E-20 0.000300000031788794
      endloop
   endfacet
   facet normal -1.13730005148826E-32 1 6.12303176911189E-17
      outer loop
         vertex -0.0035 -1.83690972537736E-20 0.000300000031788794
         vertex -0.00527584008872509 -7.01621428984068E-20 0.00114587259292603
         vertex -0.00495354378223419 -7.85810371301631E-20 0.00128336811065674
      endloop
   endfacet
   facet normal -2.00146570120876E-32 1 6.12303176911189E-17
      outer loop
         vertex -0.0035 -1.83690972537736E-20 0.000300000031788794
         vertex -0.00495354378223419 -7.85810371301631E-20 0.00128336811065674
         vertex -0.00468002384901047 -9.19913150056436E-20 0.00150238180160523
      endloop
   endfacet
   facet normal 5.05203408604824E-33 1 6.12303176911189E-17
      outer loop
         vertex -0.00468002384901047 -9.19913150056436E-20 0.00150238180160523
         vertex -0.00447538381814957 -1.09407260298475E-19 0.00178681516647339
         vertex -0.0035 -1.83690972537736E-20 0.000300000031788794
      endloop
   endfacet
   facet normal -9.39760263250428E-32 1 6.12303176911188E-17
      outer loop
         vertex -0.0035 -1.83690972537736E-20 0.000300000031788794
         vertex -0.00447538381814957 -1.09407260298475E-19 0.00178681516647339
         vertex -0.0043546644449234 -1.29548852124194E-19 0.00211576318740845
      endloop
   endfacet
   facet normal 0 1 6.12303176911189E-17
      outer loop
         vertex -0.0035 -1.83690972537736E-20 0.000300000031788794
         vertex -0.0043546644449234 -1.29548852124194E-19 0.00211576318740845
         vertex -0.00425642496347427 -1.55604303354788E-19 0.00254129505157471
      endloop
   endfacet
   facet normal -7.31300326148664E-32 1 6.12303176911189E-17
      outer loop
         vertex -0.0035 -1.83690972537736E-20 0.000300000031788794
         vertex -0.00425642496347427 -1.55604303354788E-19 0.00254129505157471
         vertex -0.0035 -2.26552173510663E-19 0.00369999996821057
      endloop
   endfacet
   facet normal -2.00328688346901E-31 1 6.12303176911189E-17
      outer loop
         vertex -0.0035 -2.26552173510663E-19 0.00369999996821057
         vertex -0.00425642496347427 -1.55604303354788E-19 0.00254129505157471
         vertex -0.00415818548202515 -1.79068034190061E-19 0.00292449951171875
      endloop
   endfacet
   facet normal -2.13750240876473E-31 1 6.12303176911189E-17
      outer loop
         vertex -0.0035 -2.26552173510663E-19 0.00369999996821057
         vertex -0.00415818548202515 -1.79068034190061E-19 0.00292449951171875
         vertex -0.00405994594097137 -2.00224480739055E-19 0.00327002191543579
      endloop
   endfacet
   facet normal -1.77120509383547E-31 1 6.12303176911189E-17
      outer loop
         vertex -0.00405994594097137 -2.00224480739055E-19 0.00327002191543579
         vertex -0.0039617063999176 -2.19358035315473E-19 0.00358250689506531
         vertex -0.0035 -2.26552173510663E-19 0.00369999996821057
      endloop
   endfacet
   facet normal -1.61449807322898E-31 1 6.12303176911189E-17
      outer loop
         vertex -0.0035 -2.26552173510663E-19 0.00369999996821057
         vertex -0.0039617063999176 -2.19358035315473E-19 0.00358250689506531
         vertex -0.00391930505081659 -2.26552173510662E-19 0.00369999996821055
      endloop
   endfacet
   facet normal -1.61449807322903E-31 1 6.1230317691119E-17
      outer loop
         vertex -0.0035 -2.26552173510663E-19 0.00369999996821057
         vertex -0.00391930505081659 -2.26552173510662E-19 0.00369999996821055
         vertex -0.00376522731781006 -2.52694183789855E-19 0.00412694549560547
      endloop
   endfacet
   facet normal -2.61530079622484E-31 1 6.12303176911189E-17
      outer loop
         vertex -0.00376522731781006 -2.52694183789855E-19 0.00412694549560547
         vertex -0.0035687483549118 -2.81319224172632E-19 0.00459444332122803
         vertex -0.0035 -2.26552173510663E-19 0.00369999996821057
      endloop
   endfacet
   facet normal -8.23674461661488E-31 1 6.12303176911189E-17
      outer loop
         vertex -0.0035 -2.26552173510663E-19 0.00369999996821057
         vertex -0.0035687483549118 -2.81319224172632E-19 0.00459444332122803
         vertex -0.00349999999999999 -2.90105626606794E-19 0.0047379409016013
      endloop
   endfacet
   facet normal 1.77330123973459E-31 1 6.12303176911189E-17
      outer loop
         vertex -0.0035 -2.26552173510663E-19 0.00369999996821057
         vertex -0.00349999999999999 -2.90105626606794E-19 0.0047379409016013
         vertex -0.00337226927280426 -3.06430287375616E-19 0.00500455164909363
      endloop
   endfacet
   facet normal 6.59284403046715E-33 1 6.12303176911189E-17
      outer loop
         vertex -0.0035 -2.26552173510663E-19 0.00369999996821057
         vertex -0.00337226927280426 -3.06430287375616E-19 0.00500455164909363
         vertex 0 -2.26552173510671E-19 0.0036999999682107
      endloop
   endfacet
   facet normal -1.60580625145403E-32 1 6.12303176911188E-17
      outer loop
         vertex 0 -2.26552173510671E-19 0.0036999999682107
         vertex -0.00337226927280426 -3.06430287375616E-19 0.00500455164909363
         vertex -0.003175790309906 -3.28359196061428E-19 0.00536268973350525
      endloop
   endfacet
   facet normal -1.7836380359623E-32 1 6.12303176911188E-17
      outer loop
         vertex 0 -2.26552173510671E-19 0.0036999999682107
         vertex -0.003175790309906 -3.28359196061428E-19 0.00536268973350525
         vertex -0.00297931122779846 -3.47473772658902E-19 0.00567486476898194
      endloop
   endfacet
   facet normal 2.94107491133445E-32 1 6.12303176911189E-17
      outer loop
         vertex -0.00297931122779846 -3.47473772658902E-19 0.00567486476898194
         vertex -0.00278283214569092 -3.64141846896093E-19 0.00594708406925202
         vertex 0 -2.26552173510671E-19 0.0036999999682107
      endloop
   endfacet
   facet normal 0 1 6.12303176911189E-17
      outer loop
         vertex 0 -2.26552173510671E-19 0.0036999999682107
         vertex -0.00278283214569092 -3.64141846896093E-19 0.00594708406925202
         vertex -0.00238987421989441 -3.9160622328352E-19 0.00639562618732453
      endloop
   endfacet
   facet normal -5.00642084740998E-32 1 6.12303176911189E-17
      outer loop
         vertex 0 -2.26552173510671E-19 0.0036999999682107
         vertex -0.00238987421989441 -3.9160622328352E-19 0.00639562618732453
         vertex -0.00199691605567932 -4.12592430062159E-19 0.00673836827278137
      endloop
   endfacet
   facet normal -6.04746106592823E-32 1 6.12303176911188E-17
      outer loop
         vertex 0 -2.26552173510671E-19 0.0036999999682107
         vertex -0.00199691605567932 -4.12592430062159E-19 0.00673836827278137
         vertex -0.00121099996566772 -4.34735249767566E-19 0.00709999990463257
      endloop
   endfacet
   facet normal -1.08929804204063E-31 1 6.12303176911189E-17
      outer loop
         vertex -0.00121099996566772 -4.34735249767566E-19 0.00709999990463257
         vertex -0.00199691605567932 -4.12592430062159E-19 0.00673836827278137
         vertex -0.00160395812988281 -4.27342094768691E-19 0.0069792565330863
      endloop
   endfacet
   facet normal -2.47269540738892E-31 1 6.12303176911194E-17
      outer loop
         vertex -0.00121099996566772 -4.34735249767566E-19 0.00709999990463257
         vertex -0.00160395812988281 -4.27342094768691E-19 0.0069792565330863
         vertex -0.00140747880935669 -4.32369707191739E-19 0.0070613663867116
      endloop
   endfacet
   facet normal 0 1 6.12303176911189E-17
      outer loop
         vertex -0.00121099996566772 -4.34735249767566E-19 0.00709999990463257
         vertex 1.30104260698261E-18 -4.34735249767566E-19 0.00709999990463257
         vertex 0 -2.26552173510671E-19 0.0036999999682107
      endloop
   endfacet
   facet normal 0 1 6.12303176911189E-17
      outer loop
         vertex 0 -2.26552173510671E-19 0.0036999999682107
         vertex 1.30104260698261E-18 -4.34735249767566E-19 0.00709999990463257
         vertex 0.00121099996566773 -4.34735249767566E-19 0.00709999990463257
      endloop
   endfacet
   facet normal 6.04745948968032E-32 1 6.12303176911188E-17
      outer loop
         vertex 0 -2.26552173510671E-19 0.0036999999682107
         vertex 0.00121099996566773 -4.34735249767566E-19 0.00709999990463257
         vertex 0.0019969162940979 -4.12592430062159E-19 0.00673836827278137
      endloop
   endfacet
   facet normal 1.24491735413624E-31 1 6.12303176911189E-17
      outer loop
         vertex 0.0019969162940979 -4.12592430062159E-19 0.00673836827278137
         vertex 0.00121099996566773 -4.34735249767566E-19 0.00709999990463257
         vertex 0.00160395765304566 -4.27342094768691E-19 0.0069792565330863
      endloop
   endfacet
   facet normal 2.47269007482293E-31 1 6.12303176911194E-17
      outer loop
         vertex 0.00121099996566773 -4.34735249767566E-19 0.00709999990463257
         vertex 0.00140747880935669 -4.32369707191739E-19 0.0070613663867116
         vertex 0.00160395765304566 -4.27342094768691E-19 0.0069792565330863
      endloop
   endfacet
   facet normal 1.8774077361049E-32 1 6.12303176911189E-17
      outer loop
         vertex 0.0019969162940979 -4.12592430062159E-19 0.00673836827278137
         vertex 0.00238987445831299 -3.9160622328352E-19 0.00639562618732453
         vertex 0 -2.26552173510671E-19 0.0036999999682107
      endloop
   endfacet
   facet normal 0 1 6.12303176911189E-17
      outer loop
         vertex 0 -2.26552173510671E-19 0.0036999999682107
         vertex 0.00238987445831299 -3.9160622328352E-19 0.00639562618732453
         vertex 0.00278283214569092 -3.64141846896093E-19 0.00594708406925202
      endloop
   endfacet
   facet normal -3.92143146297448E-32 1 6.12303176911189E-17
      outer loop
         vertex 0 -2.26552173510671E-19 0.0036999999682107
         vertex 0.00278283214569092 -3.64141846896093E-19 0.00594708406925202
         vertex 0.00297931146621704 -3.47473772658902E-19 0.00567486476898194
      endloop
   endfacet
   facet normal 1.7836385723939E-32 1 6.12303176911189E-17
      outer loop
         vertex 0.00297931146621704 -3.47473772658902E-19 0.00567486476898194
         vertex 0.00317579030990601 -3.28359196061428E-19 0.00536268973350525
         vertex 0 -2.26552173510671E-19 0.0036999999682107
      endloop
   endfacet
   facet normal 3.21161293770564E-32 1 6.12303176911189E-17
      outer loop
         vertex 0 -2.26552173510671E-19 0.0036999999682107
         vertex 0.00317579030990601 -3.28359196061428E-19 0.00536268973350525
         vertex 0.00337226915359497 -3.06430287375616E-19 0.00500455164909363
      endloop
   endfacet
   facet normal -9.94132365268145E-34 1 6.12303176911189E-17
      outer loop
         vertex 0 -2.26552173510671E-19 0.0036999999682107
         vertex 0.00337226915359497 -3.06430287375616E-19 0.00500455164909363
         vertex 0.0035 -2.26552173510679E-19 0.00369999996821084
      endloop
   endfacet
   facet normal -5.31990168773676E-31 1 6.12303176911189E-17
      outer loop
         vertex 0.0035 -2.26552173510679E-19 0.00369999996821084
         vertex 0.00337226915359497 -3.06430287375616E-19 0.00500455164909363
         vertex 0.0035 -2.90105591561928E-19 0.00473794032925631
      endloop
   endfacet
   facet normal 4.94207520373085E-31 1 6.12303176911188E-17
      outer loop
         vertex 0.0035 -2.26552173510679E-19 0.00369999996821084
         vertex 0.0035 -2.90105591561928E-19 0.00473794032925631
         vertex 0.00356874799728394 -2.81319224172632E-19 0.00459444332122803
      endloop
   endfacet
   facet normal 3.39281320152378E-31 1 6.12303176911189E-17
      outer loop
         vertex 0.00356874799728394 -2.81319224172632E-19 0.00459444332122803
         vertex 0.00376522779464722 -2.52694183789855E-19 0.00412694549560547
         vertex 0.0035 -2.26552173510679E-19 0.00369999996821084
      endloop
   endfacet
   facet normal 6.82075203445578E-32 1 6.1230317691119E-17
      outer loop
         vertex 0.0035 -2.26552173510679E-19 0.00369999996821084
         vertex 0.00376522779464722 -2.52694183789855E-19 0.00412694549560547
         vertex 0.0039193053406872 -2.2655217351068E-19 0.00369999996821086
      endloop
   endfacet
   facet normal 6.82075203445627E-32 1 6.12303176911189E-17
      outer loop
         vertex 0.0035 -2.26552173510679E-19 0.00369999996821084
         vertex 0.0039193053406872 -2.2655217351068E-19 0.00369999996821086
         vertex 0.00396170663833618 -2.19358035315473E-19 0.00358250689506531
      endloop
   endfacet
   facet normal 6.36526137485541E-32 1 6.12303176911189E-17
      outer loop
         vertex 0.00396170663833618 -2.19358035315473E-19 0.00358250689506531
         vertex 0.00405994558334351 -2.00224480739055E-19 0.00327002191543579
         vertex 0.0035 -2.26552173510679E-19 0.00369999996821084
      endloop
   endfacet
   facet normal 3.88637514301443E-32 1 6.12303176911188E-17
      outer loop
         vertex 0.0035 -2.26552173510679E-19 0.00369999996821084
         vertex 0.00405994558334351 -2.00224480739055E-19 0.00327002191543579
         vertex 0.00415818548202515 -1.79068034190061E-19 0.00292449951171875
      endloop
   endfacet
   facet normal 1.33552143283503E-31 1 6.12303176911189E-17
      outer loop
         vertex 0.0035 -2.26552173510679E-19 0.00369999996821084
         vertex 0.00415818548202515 -1.79068034190061E-19 0.00292449951171875
         vertex 0.00425642442703247 -1.55604303354788E-19 0.00254129505157471
      endloop
   endfacet
   facet normal 5.48475633579541E-32 1 6.12303176911189E-17
      outer loop
         vertex 0.0035 -2.26552173510679E-19 0.00369999996821084
         vertex 0.00425642442703247 -1.55604303354788E-19 0.00254129505157471
         vertex 0.0035 -1.83690972537304E-20 0.000300000031788089
      endloop
   endfacet
   facet normal 0 1 6.12303176911189E-17
      outer loop
         vertex 0.0035 -1.83690972537304E-20 0.000300000031788089
         vertex 0.00425642442703247 -1.55604303354788E-19 0.00254129505157471
         vertex 0.00435466432571411 -1.29548852124194E-19 0.00211576318740845
      endloop
   endfacet
   facet normal 9.39761759860076E-32 1 6.12303176911188E-17
      outer loop
         vertex 0.0035 -1.83690972537304E-20 0.000300000031788089
         vertex 0.00435466432571411 -1.29548852124194E-19 0.00211576318740845
         vertex 0.00447538328170776 -1.09407260298475E-19 0.00178681516647339
      endloop
   endfacet
   facet normal 2.02081231726483E-32 1 6.12303176911189E-17
      outer loop
         vertex 0.00447538328170776 -1.09407260298475E-19 0.00178681516647339
         vertex 0.00468002367019653 -9.19913150056436E-20 0.00150238180160523
         vertex 0.0035 -1.83690972537304E-20 0.000300000031788089
      endloop
   endfacet
   facet normal 2.00146754427593E-32 1 6.12303176911189E-17
      outer loop
         vertex 0.0035 -1.83690972537304E-20 0.000300000031788089
         vertex 0.00468002367019653 -9.19913150056436E-20 0.00150238180160523
         vertex 0.00495354318618775 -7.85810371301631E-20 0.00128336811065674
      endloop
   endfacet
   facet normal 1.13729852272838E-32 1 6.12303176911189E-17
      outer loop
         vertex 0.0035 -1.83690972537304E-20 0.000300000031788089
         vertex 0.00495354318618775 -7.85810371301631E-20 0.00128336811065674
         vertex 0.00527584028244018 -7.01621428984068E-20 0.00114587259292603
      endloop
   endfacet
   facet normal 5.87268677440972E-33 1 6.12303176911189E-17
      outer loop
         vertex 0.00527584028244018 -7.01621428984068E-20 0.00114587259292603
         vertex 0.00562322473526001 -6.73533436208528E-20 0.00109999990463257
         vertex 0.0035 -1.83690972537304E-20 0.000300000031788089
      endloop
   endfacet
   facet normal 1.75753198224398E-32 1 6.12303176911189E-17
      outer loop
         vertex 0.0035 -1.83690972537304E-20 0.000300000031788089
         vertex 0.00562322473526001 -6.73533436208528E-20 0.00109999990463257
         vertex 0.007 -1.83690972537089E-20 0.000300000031787737
      endloop
   endfacet
   facet normal 1.75753198224347E-32 1 6.12303176911188E-17
      outer loop
         vertex 0.0035 -1.83690972537304E-20 0.000300000031788089
         vertex 0.007 -1.83690972537089E-20 0.000300000031787737
         vertex 0.00349999999999998 1.8981397900309E-19 -0.00309999990463257
      endloop
   endfacet
   facet normal 0 1 6.12303176911189E-17
      outer loop
         vertex 0.00349999999999998 1.8981397900309E-19 -0.00309999990463257
         vertex 0.007 -1.83690972537089E-20 0.000300000031787737
         vertex 0.007 1.8981397900309E-19 -0.00309999990463257
      endloop
   endfacet
   facet normal -1.5368447455945E-33 1 6.12303176911189E-17
      outer loop
         vertex 0.00562322473526001 -6.73533436208528E-20 0.00109999990463257
         vertex 0.007 -6.73533436208527E-20 0.00109999990463257
         vertex 0.007 -1.83690972537089E-20 0.000300000031787737
      endloop
   endfacet
   facet normal 0 1 6.12303176911189E-17
      outer loop
         vertex 0.00349999999999998 1.8981397900309E-19 -0.00309999990463257
         vertex 5.72458747072346E-17 1.8981397900309E-19 -0.00309999990463257
         vertex 0.0035 -1.83690972537304E-20 0.000300000031788089
      endloop
   endfacet
   facet normal -9.33678370083453E-34 1 6.12303176911189E-17
      outer loop
         vertex 0.0035 -1.83690972537304E-20 0.000300000031788089
         vertex 5.72458747072346E-17 1.8981397900309E-19 -0.00309999990463257
         vertex 0 -1.8369097253752E-20 0.000300000031788442
      endloop
   endfacet
   facet normal -9.33678370082076E-34 1 6.12303176911189E-17
      outer loop
         vertex 0.0035 -1.83690972537304E-20 0.000300000031788089
         vertex 0 -1.8369097253752E-20 0.000300000031788442
         vertex 0.0035 -2.26552173510679E-19 0.00369999996821084
      endloop
   endfacet
   facet normal -9.94132365266807E-34 1 6.12303176911189E-17
      outer loop
         vertex 0.0035 -2.26552173510679E-19 0.00369999996821084
         vertex 0 -1.8369097253752E-20 0.000300000031788442
         vertex 0 -2.26552173510671E-19 0.0036999999682107
      endloop
   endfacet
   facet normal 0 1 6.12303176911188E-17
      outer loop
         vertex 5.72458747072346E-17 1.8981397900309E-19 -0.00309999990463257
         vertex -0.00349999999999696 1.8981397900309E-19 -0.00309999990463257
         vertex 0 -1.8369097253752E-20 0.000300000031788442
      endloop
   endfacet
   facet normal -2.35098870164632E-33 1 6.12303176911188E-17
      outer loop
         vertex 0 -1.8369097253752E-20 0.000300000031788442
         vertex -0.00349999999999696 1.8981397900309E-19 -0.00309999990463257
         vertex -0.0035 -1.83690972537736E-20 0.000300000031788794
      endloop
   endfacet
   facet normal -2.35098870164389E-33 1 6.12303176911189E-17
      outer loop
         vertex 0 -1.8369097253752E-20 0.000300000031788442
         vertex -0.0035 -1.83690972537736E-20 0.000300000031788794
         vertex 0 -2.26552173510671E-19 0.0036999999682107
      endloop
   endfacet
   facet normal 6.59284403046939E-33 1 6.12303176911189E-17
      outer loop
         vertex 0 -2.26552173510671E-19 0.0036999999682107
         vertex -0.0035 -1.83690972537736E-20 0.000300000031788794
         vertex -0.0035 -2.26552173510663E-19 0.00369999996821057
      endloop
   endfacet
endsolid
