#
# Object file
# Created by SpaceClaim
#

mtllib ProfileHTD.mtl

# ProfileHTD
v -3.21952416561544 2.82317469827831 0
v -3.2579971011728 2.53733340650797 0
v -3.29199829138815 2.19449354335666 0
v -3.31570603884757 1.85078859794885 0
v -3.32909845747054 1.50652718730271 0
v -3.34614608436823 1.35193404275924 0
v -3.38938273489475 1.20253441855311 0
v -3.45753505825996 1.06273114215583 0
v -3.54859395883977 0.936644151806831 0
v -3.65987629629672 0.827989133540541 0
v -3.78810241818428 0.739968090783805 0
v -3.92949394881725 0.675175047945231 0
v -4.07988345250487 0.635519332718104 0
v -4.23483969643712 0.622169638518244 0
v -5.49999997019768 0.622169638518244 0
v -5.49999997019768 -1.62168079987168 0
v 5.49999997019768 -1.62168079987168 0
v 5.49999997019768 0.622169638518244 0
v 4.23483969643712 0.622169638518244 0
v 4.07988345250487 0.635519332718104 0
v 3.92949394881725 0.675175047945231 0
v 3.78810241818428 0.739968090783805 0
v 3.65987629629672 0.827989133540541 0
v 3.54859395883977 0.936644151806831 0
v 3.45753505825996 1.06273114215583 0
v 3.38938273489475 1.20253441855311 0
v 3.34614608436823 1.35193404275924 0
v 3.32909845747054 1.50652718730271 0
v 3.31570603884757 1.85078859794885 0
v 3.29199829138815 2.19449354335666 0
v 3.2579971011728 2.53733340650797 0
v 3.21952416561544 2.82317469827831 0
v 3.15693952143192 3.10472142882645 0
v 3.07069439440966 3.37994331493974 0
v 2.96141067519784 3.64685617387295 0
v 2.82987649552524 3.903535194695 0
v 2.67704017460346 4.14812937378883 0
v 2.50400346703827 4.37887571752071 0
v 2.3120145779103 4.59410948678851 0
v 2.10245768539608 4.7922795638442 0
v 1.87684374395758 4.97195590287447 0
v 1.63679965771735 5.13184396550059 0
v 1.38405617326498 5.2707907743752 0
v 1.12043612170964 5.387794226408 0
v 0.847839750349522 5.48201007768512 0
v 0.568233139347285 5.55275985971093 0
v 0.283632281934842 5.59953274205327 0
v 0.189449041499756 5.61113283038139 0
v 0.0948421948123723 5.61852008104324 0
v -1.10453096321961E-15 5.62168098986149 0
v -0.0948421948123723 5.61852008104324 0
v -0.189449041499756 5.61113283038139 0
v -0.283632281934842 5.59953274205327 0
v -0.568233139347285 5.55275985971093 0
v -0.847839750349522 5.48201007768512 0
v -1.12043612170964 5.387794226408 0
v -1.38405617326498 5.2707907743752 0
v -1.63679965771735 5.13184396550059 0
v -1.87684374395758 4.97195590287447 0
v -2.10245768539608 4.7922795638442 0
v -2.3120145779103 4.59410948678851 0
v -2.50400346703827 4.37887571752071 0
v -2.67704017460346 4.14812937378883 0
v -2.82987649552524 3.903535194695 0
v -2.96141067519784 3.64685617387295 0
v -3.07069439440966 3.37994331493974 0
v -3.15693952143192 3.10472142882645 0
vn 0 0 1
vn 0 0 1
vn 0 0 1
vn 0 0 1
vn 0 0 1
vn 0 0 1
vn 0 0 1
vn 0 0 1
vn 0 0 1
vn 0 0 1
vn 0 0 1
vn 0 0 1
vn 0 0 1
vn 0 0 1
vn 0 0 1
vn 0 0 1
vn 0 0 1
vn 0 0 1
vn 0 0 1
vn 0 0 1
vn 0 0 1
vn 0 0 1
vn 0 0 1
vn 0 0 1
vn 0 0 1
vn 0 0 1
vn 0 0 1
vn 0 0 1
vn 0 0 1
vn 0 0 1
vn 0 0 1
vn 0 0 1
vn 0 0 1
vn 0 0 1
vn 0 0 1
vn 0 0 1
vn 0 0 1
vn 0 0 1
vn 0 0 1
vn 0 0 1
vn 0 0 1
vn 0 0 1
vn 0 0 1
vn 0 0 1
vn 0 0 1
vn 0 0 1
vn 0 0 1
vn 0 0 1
vn 0 0 1
vn 0 0 1
vn 0 0 1
vn 0 0 1
vn 0 0 1
vn 0 0 1
vn 0 0 1
vn 0 0 1
vn 0 0 1
vn 0 0 1
vn 0 0 1
vn 0 0 1
vn 0 0 1
vn 0 0 1
vn 0 0 1
vn 0 0 1
vn 0 0 1
vn 0 0 1
vn 0 0 1
vt -0.00321952416561544 0.00220100488513708
vt -0.0032579971011728 0.00191516370978206
vt -0.00329199829138815 0.00157232396304607
vt -0.00331570603884757 0.00122861901763827
vt -0.00332909845747054 0.000884357606992126
vt -0.00334614608436823 0.000729764462448657
vt -0.00338938273489475 0.000580364838242531
vt -0.00345753505825996 0.000440561561845243
vt -0.00354859395883977 0.000314474542392418
vt -0.00365987629629672 0.000205819524126127
vt -0.00378810241818428 0.000117798503197264
vt -0.00392949394881725 5.30054203409236E-05
vt -0.00407988345250487 1.33497069327859E-05
vt -0.00423483969643712 0
vt -0.00549999997019768 0
vt -0.00549999997019768 -0.00224385038018227
vt 0.00549999997019768 -0.00224385038018227
vt 0.00549999997019768 0
vt 0.00423483969643712 0
vt 0.00407988345250487 1.33497069327859E-05
vt 0.00392949394881725 5.30054203409236E-05
vt 0.00378810241818428 0.000117798503197264
vt 0.00365987629629672 0.000205819524126127
vt 0.00354859395883977 0.000314474542392418
vt 0.00345753505825996 0.000440561561845243
vt 0.00338938273489475 0.000580364838242531
vt 0.00334614608436823 0.000729764462448657
vt 0.00332909845747054 0.000884357606992126
vt 0.00331570603884757 0.00122861901763827
vt 0.00329199829138815 0.00157232396304607
vt 0.0032579971011728 0.00191516370978206
vt 0.00321952416561544 0.00220100488513708
vt 0.00315693952143192 0.00248255184851587
vt 0.00307069439440966 0.00275777373462915
vt 0.00296141067519784 0.00302468659356236
vt 0.00282987649552524 0.00328136561438441
vt 0.00267704017460346 0.00352596002630889
vt 0.00250400346703827 0.00375670590437949
vt 0.0023120145779103 0.00397193990647793
vt 0.00210245768539608 0.00417010951787233
vt 0.00187684374395758 0.00434978632256389
vt 0.00163679965771735 0.00450967438519001
vt 0.00138405617326498 0.00464862119406462
vt 0.00112043612170964 0.00476562464609742
vt 0.000847839750349522 0.00485984049737453
vt 0.000568233139347285 0.00493059027940035
vt 0.000283632281934842 0.00497736316174269
vt 0.000189449041499756 0.00498896325007081
vt 9.48421948123723E-05 0.00499635050073266
vt -1.10453096321961E-18 0.00499951140955091
vt -9.48421948123723E-05 0.00499635050073266
vt -0.000189449041499756 0.00498896325007081
vt -0.000283632281934842 0.00497736316174269
vt -0.000568233139347285 0.00493059027940035
vt -0.000847839750349522 0.00485984049737453
vt -0.00112043612170964 0.00476562464609742
vt -0.00138405617326498 0.00464862119406462
vt -0.00163679965771735 0.00450967438519001
vt -0.00187684374395758 0.00434978632256389
vt -0.00210245768539608 0.00417010951787233
vt -0.0023120145779103 0.00397193990647793
vt -0.00250400346703827 0.00375670590437949
vt -0.00267704017460346 0.00352596002630889
vt -0.00282987649552524 0.00328136561438441
vt -0.00296141067519784 0.00302468659356236
vt -0.00307069439440966 0.00275777373462915
vt -0.00315693952143192 0.00248255184851587

o ProfileHTD
g ProfileHTD
s off

usemtl c_0

# face 0
f 16/16/16 17/17/17 10/10/10
f 10/10/10 17/17/17 23/23/23
f 10/10/10 23/23/23 9/9/9
f 9/9/9 23/23/23 24/24/24
f 9/9/9 24/24/24 8/8/8
f 8/8/8 24/24/24 25/25/25
f 8/8/8 25/25/25 7/7/7
f 7/7/7 25/25/25 26/26/26
f 7/7/7 26/26/26 6/6/6
f 6/6/6 26/26/26 27/27/27
f 6/6/6 27/27/27 5/5/5
f 5/5/5 27/27/27 28/28/28
f 5/5/5 28/28/28 4/4/4
f 4/4/4 28/28/28 29/29/29
f 4/4/4 29/29/29 3/3/3
f 3/3/3 29/29/29 30/30/30
f 3/3/3 30/30/30 2/2/2
f 2/2/2 30/30/30 31/31/31
f 2/2/2 31/31/31 1/1/1
f 1/1/1 31/31/31 32/32/32
f 1/1/1 32/32/32 67/67/67
f 67/67/67 32/32/32 33/33/33
f 67/67/67 33/33/33 66/66/66
f 66/66/66 33/33/33 34/34/34
f 66/66/66 34/34/34 65/65/65
f 65/65/65 34/34/34 35/35/35
f 65/65/65 35/35/35 64/64/64
f 64/64/64 35/35/35 36/36/36
f 64/64/64 36/36/36 63/63/63
f 63/63/63 36/36/36 37/37/37
f 63/63/63 37/37/37 62/62/62
f 62/62/62 37/37/37 38/38/38
f 62/62/62 38/38/38 61/61/61
f 61/61/61 38/38/38 39/39/39
f 61/61/61 39/39/39 60/60/60
f 60/60/60 39/39/39 40/40/40
f 60/60/60 40/40/40 59/59/59
f 59/59/59 40/40/40 41/41/41
f 59/59/59 41/41/41 58/58/58
f 58/58/58 41/41/41 42/42/42
f 58/58/58 42/42/42 57/57/57
f 57/57/57 42/42/42 43/43/43
f 57/57/57 43/43/43 56/56/56
f 56/56/56 43/43/43 44/44/44
f 56/56/56 44/44/44 55/55/55
f 55/55/55 44/44/44 45/45/45
f 55/55/55 45/45/45 54/54/54
f 54/54/54 45/45/45 46/46/46
f 54/54/54 46/46/46 53/53/53
f 53/53/53 46/46/46 47/47/47
f 53/53/53 47/47/47 52/52/52
f 52/52/52 47/47/47 48/48/48
f 52/52/52 48/48/48 51/51/51
f 51/51/51 48/48/48 49/49/49
f 51/51/51 49/49/49 50/50/50
f 10/10/10 11/11/11 16/16/16
f 16/16/16 11/11/11 12/12/12
f 16/16/16 12/12/12 13/13/13
f 13/13/13 14/14/14 16/16/16
f 16/16/16 14/14/14 15/15/15
f 18/18/18 19/19/19 17/17/17
f 17/17/17 19/19/19 20/20/20
f 17/17/17 20/20/20 21/21/21
f 21/21/21 22/22/22 17/17/17
f 17/17/17 22/22/22 23/23/23
